<?xml version="1.0" standalone="no"?>
<!DOCTYPE svg PUBLIC "-//W3C//DTD SVG 20010904//EN"
 "http://www.w3.org/TR/2001/REC-SVG-20010904/DTD/svg10.dtd">
<svg version="1.0" xmlns="http://www.w3.org/2000/svg"
 width="166.000000pt" height="160.000000pt" viewBox="0 0 166.000000 160.000000"
 preserveAspectRatio="xMidYMid meet">

<g transform="translate(0.000000,160.000000) scale(0.100000,-0.100000)"
fill="#000000" stroke="none">
<path d="M0 800 l0 -800 830 0 830 0 0 800 0 800 -830 0 -830 0 0 -800z m1208
670 c2 -5 8 -10 14 -10 11 0 48 -38 48 -50 0 -4 13 -21 30 -38 17 -18 30 -36
30 -40 0 -5 11 -21 24 -35 65 -70 62 -41 56 -487 -5 -389 -6 -407 -27 -445
-20 -37 -57 -63 -98 -69 -8 -1 -18 -5 -21 -9 -12 -11 -812 -8 -819 3 -3 5 -13
10 -21 10 -9 0 -33 18 -54 41 -29 31 -39 52 -44 89 -4 27 -6 202 -6 390 1 188
-1 345 -4 348 -10 9 -6 42 4 42 6 0 10 9 10 19 0 10 7 21 15 25 8 3 15 11 15
18 0 7 14 27 30 45 17 18 30 36 30 40 0 4 16 25 35 45 19 20 35 41 35 47 0 33
34 36 376 34 225 -1 340 -6 342 -13z"/>
<path d="M562 1320 c-9 -16 -20 -30 -24 -30 -5 0 -8 -3 -8 -7 0 -5 151 -8 335
-8 261 0 335 3 335 13 0 6 -5 12 -10 12 -6 0 -16 11 -22 25 l-11 25 -289 0
-289 0 -17 -30z"/>
<path d="M457 1123 c-4 -3 -7 -152 -7 -330 0 -271 3 -329 15 -353 l16 -30 389
0 390 0 7 27 c5 16 8 177 8 358 l0 330 -406 3 c-223 1 -409 -1 -412 -5z m244
-83 c14 -8 19 -21 19 -50 0 -46 13 -72 55 -111 25 -24 39 -28 83 -29 29 0 62
6 74 13 32 18 58 45 58 61 0 7 7 27 15 42 8 16 15 39 15 50 0 25 17 34 65 34
28 0 36 -6 49 -32 18 -35 21 -78 6 -78 -5 0 -10 -15 -10 -33 0 -22 -8 -41 -24
-56 -13 -13 -27 -34 -30 -47 -4 -13 -11 -24 -18 -24 -6 0 -26 -11 -44 -25 -18
-14 -42 -25 -53 -25 -12 0 -21 -4 -21 -10 0 -17 -155 -13 -170 5 -7 8 -19 15
-27 15 -7 0 -16 7 -19 15 -3 8 -15 17 -27 21 -25 8 -47 28 -47 43 0 6 -3 11
-8 11 -11 0 -42 76 -42 104 0 14 -4 28 -10 31 -15 9 -12 33 8 60 19 27 68 33
103 15z"/>
</g>
</svg>
